# xmcd
#
# Track frame offsets: 
#        150
#        14182
#        28719
#        40347
#        50495
#        68927
#        85015
#        107612
#        117717
#        132845
#
# Disc length: 1937 seconds
#
# Revision: 0
# Processed by: cddbd v1.5.1PL2 Copyright (c) Steve Scherf et al.
# Submitted via: ExactAudioCopy v0.95a5
#
DISCID=8c078f0a
DTITLE=Earl King - The Sonet Blues Story
DYEAR=1977
DGENRE=Blues
TTITLE0=Let's Make A Better World
TTITLE1=Trick Bag
TTITLE2=Do Re Mi
TTITLE3=One And One
TTITLE4=Time For The Sun To Rise
TTITLE5=Always A First Time
TTITLE6=Baby Sittin'
TTITLE7=Mama And Papa
TTITLE8=The Panic's On
TTITLE9=Come Let The Good Times Roll
EXTD=
EXTT0=
EXTT1=
EXTT2=
EXTT3=
EXTT4=
EXTT5=
EXTT6=
EXTT7=
EXTT8=
EXTT9=
PLAYORDER=
